<svg width="1920" height="1153" viewBox="0 0 1920 1153" fill="none" xmlns="http://www.w3.org/2000/svg">
<g clip-path="url(#clip0_698_14656)">
<path d="M0.667043 0L0.666992 1151.8" stroke="black" stroke-opacity="0.06" stroke-width="1.20104"/>
<path d="M1918.67 0.600586H0" stroke="black" stroke-opacity="0.06" stroke-width="1.20104"/>
<path d="M1918.67 115.9H0" stroke="black" stroke-opacity="0.06" stroke-width="1.20104"/>
<path d="M1918.67 231.201H0" stroke="black" stroke-opacity="0.06" stroke-width="1.20104"/>
<path d="M1918.67 346.5H0" stroke="black" stroke-opacity="0.06" stroke-width="1.20104"/>
<path d="M1918.67 461.8H0" stroke="black" stroke-opacity="0.06" stroke-width="1.20104"/>
<path d="M1918.67 577.101H0" stroke="black" stroke-opacity="0.06" stroke-width="1.20104"/>
<path d="M1918.67 691.199H0" stroke="black" stroke-opacity="0.06" stroke-width="1.20104"/>
<path d="M1918.67 807.701H0" stroke="black" stroke-opacity="0.06" stroke-width="1.20104"/>
<path d="M1918.67 921.799H0" stroke="black" stroke-opacity="0.06" stroke-width="1.20104"/>
<path d="M1918.67 1038.3H0" stroke="black" stroke-opacity="0.06" stroke-width="1.20104"/>
<path d="M1918.67 1152.4H0" stroke="black" stroke-opacity="0.06" stroke-width="1.20104"/>
<path d="M128.667 0V1151.8" stroke="black" stroke-opacity="0.06" stroke-width="1.20104"/>
<path d="M256.667 0V1151.8" stroke="black" stroke-opacity="0.06" stroke-width="1.20104"/>
<path d="M384.667 0V1151.8" stroke="black" stroke-opacity="0.06" stroke-width="1.20104"/>
<path d="M512.667 0V1151.8" stroke="black" stroke-opacity="0.06" stroke-width="1.20104"/>
<path d="M640.667 0V1151.8" stroke="black" stroke-opacity="0.06" stroke-width="1.20104"/>
<path d="M767.333 0V1151.8" stroke="black" stroke-opacity="0.06" stroke-width="1.20104"/>
<path d="M896.667 0V1151.8" stroke="black" stroke-opacity="0.06" stroke-width="1.20104"/>
<path d="M1023.33 0V1151.8" stroke="black" stroke-opacity="0.06" stroke-width="1.20104"/>
<path d="M1152.67 0V1151.8" stroke="black" stroke-opacity="0.06" stroke-width="1.20104"/>
<path d="M1279.33 0V1151.8" stroke="black" stroke-opacity="0.06" stroke-width="1.20104"/>
<path d="M1407.33 0V1151.8" stroke="black" stroke-opacity="0.06" stroke-width="1.20104"/>
<path d="M1535.33 0V1151.8" stroke="black" stroke-opacity="0.06" stroke-width="1.20104"/>
<path d="M1663.33 0V1151.8" stroke="black" stroke-opacity="0.06" stroke-width="1.20104"/>
<path d="M1791.33 0V1151.8" stroke="black" stroke-opacity="0.06" stroke-width="1.20104"/>
<path d="M1919.33 0V1151.8" stroke="black" stroke-opacity="0.06" stroke-width="1.20104"/>
<g style="mix-blend-mode:screen">
<rect width="1920" height="1229.44" fill="url(#paint0_linear_698_14656)"/>
</g>
</g>
<defs>
<linearGradient id="paint0_linear_698_14656" x1="960" y1="0" x2="960" y2="1229.44" gradientUnits="userSpaceOnUse">
<stop stop-color="white" stop-opacity="0"/>
<stop offset="0.912293" stop-color="white"/>
</linearGradient>
<clipPath id="clip0_698_14656">
<rect width="1920" height="1153" fill="white"/>
</clipPath>
</defs>
</svg>
