<svg width="100" height="100" viewBox="0 0 100 100" fill="none" xmlns="http://www.w3.org/2000/svg">
<rect width="100" height="100" rx="17.0288" fill="white"/>
<path d="M49.8707 17.8648L29.5039 57.7162C29.2761 58.162 29.5999 58.6915 30.1007 58.6915H40.5898C40.8444 58.6915 41.0772 58.5471 41.1902 58.3189L49.8809 40.7819C50.1251 40.2891 50.8259 40.2839 51.0775 40.7729L70.3914 78.3277C70.5064 78.5511 70.7364 78.6915 70.9876 78.6915H80.7707C81.2705 78.6915 81.5945 78.1643 81.3687 77.7185L51.0655 17.867C50.8179 17.3781 50.1201 17.3767 49.8707 17.8648Z" fill="#272626"/>
<path d="M28.002 82.6909C32.4202 82.6909 36.002 79.1092 36.002 74.6909C36.002 70.2726 32.4202 66.6909 28.002 66.6909C23.5837 66.6909 20.002 70.2726 20.002 74.6909C20.002 79.1092 23.5837 82.6909 28.002 82.6909Z" fill="#1CAF52"/>
</svg>
