<svg width="1000" height="1000" viewBox="0 0 1000 1000" fill="none" xmlns="http://www.w3.org/2000/svg">
<rect width="1000" height="1000" rx="99.3789" fill="#FCFCFC"/>
<path fill-rule="evenodd" clip-rule="evenodd" d="M495.325 588.045C495.325 588.045 484.174 683.902 379.954 683.902C275.734 683.902 318.086 683.902 318.086 683.902C318.086 683.902 213.115 679.828 213.115 602.2C213.115 524.571 213.115 342.293 213.115 342.293C213.115 342.293 324.628 359.447 324.628 426.461C324.628 493.475 324.628 530.251 324.628 530.251C324.628 530.251 332.668 569.818 381.561 569.818C428.739 569.818 492.965 535.936 497.361 478.25H497.791C502.294 535.936 566.414 569.818 613.591 569.818C662.377 569.818 670.527 530.147 670.527 530.147C670.527 530.147 670.527 493.475 670.527 426.461C670.527 359.447 782.037 342.293 782.037 342.293C782.037 342.293 782.037 524.571 782.037 602.092C782.037 679.721 677.066 683.794 677.066 683.794C677.066 683.794 719.419 683.794 615.199 683.794C510.979 683.794 499.827 588.045 499.827 588.045" fill="url(#paint0_linear_916_5790)"/>
<defs>
<linearGradient id="paint0_linear_916_5790" x1="213.172" y1="513.084" x2="782.011" y2="513.084" gradientUnits="userSpaceOnUse">
<stop stop-color="#551D5A"/>
<stop offset="1" stop-color="#5C0050"/>
</linearGradient>
</defs>
</svg>
