<svg width="46" height="44" viewBox="0 0 46 44" fill="none" xmlns="http://www.w3.org/2000/svg">
<rect width="45.8309" height="43.984" rx="2" fill="#065A68"/>
<path d="M22.689 29.713C22.7388 29.8439 22.6421 29.984 22.5021 29.984H19.4558C19.3699 29.984 19.2936 29.9291 19.2662 29.8477L18.2298 26.7603C18.2024 26.6789 18.1261 26.624 18.0402 26.624H11.7518C11.6659 26.624 11.5896 26.6789 11.5622 26.7603L10.5258 29.8477C10.4984 29.9291 10.4221 29.984 10.3362 29.984H7.28992C7.14992 29.984 7.05324 29.8439 7.10296 29.713L13.023 14.129C13.0525 14.0513 13.1269 14 13.21 14H16.582C16.6651 14 16.7395 14.0513 16.769 14.129L22.689 29.713ZM15.0859 17.2635C15.0255 17.0804 14.7665 17.0804 14.7061 17.2635L12.5827 23.6973C12.54 23.8267 12.6364 23.96 12.7726 23.96H17.0194C17.1556 23.96 17.252 23.8267 17.2093 23.6973L15.0859 17.2635Z" fill="white"/>
<path d="M35.7179 29.984C35.6533 29.984 35.5927 29.9528 35.5551 29.9001L28.5138 20.0287C28.4007 19.8702 28.1509 19.9502 28.1509 20.1448V29.784C28.1509 29.8945 28.0614 29.984 27.9509 29.984H25.1349C25.0245 29.984 24.9349 29.8945 24.9349 29.784V14.2C24.9349 14.0895 25.0245 14 25.1349 14H28.0479C28.1126 14 28.1732 14.0312 28.2108 14.0839L35.2521 23.9553C35.3651 24.1138 35.6149 24.0338 35.6149 23.8392V14.2C35.6149 14.0895 35.7045 14 35.8149 14H38.6309C38.7414 14 38.8309 14.0895 38.8309 14.2V29.784C38.8309 29.8945 38.7414 29.984 38.6309 29.984H35.7179Z" fill="white"/>
</svg>
